<mxfile host="app.diagrams.net" modified="2023-11-20T18:55:46.277Z" agent="Mozilla/5.0 (Windows NT 10.0; Win64; x64) AppleWebKit/537.36 (KHTML, like Gecko) Chrome/116.0.0.0 Safari/537.36" etag="mEi3KrHOUsHeYqjC4n3t" version="22.1.3" type="device">
  <diagram name="Page-1" id="PNwiSFAV2GDgCOXsRi9Z">
    <mxGraphModel dx="1006" dy="559" grid="1" gridSize="10" guides="1" tooltips="1" connect="1" arrows="1" fold="1" page="1" pageScale="1" pageWidth="827" pageHeight="1169" math="0" shadow="0">
      <root>
        <mxCell id="0" />
        <mxCell id="1" parent="0" />
        <mxCell id="KrVHmB8MGcx_cQTEwFVy-1" style="edgeStyle=orthogonalEdgeStyle;rounded=0;orthogonalLoop=1;jettySize=auto;html=1;entryX=0.5;entryY=0;entryDx=0;entryDy=0;" edge="1" parent="1" source="KrVHmB8MGcx_cQTEwFVy-2" target="KrVHmB8MGcx_cQTEwFVy-4">
          <mxGeometry relative="1" as="geometry">
            <mxPoint x="551" y="340" as="targetPoint" />
          </mxGeometry>
        </mxCell>
        <mxCell id="KrVHmB8MGcx_cQTEwFVy-2" value="start" style="ellipse;whiteSpace=wrap;html=1;" vertex="1" parent="1">
          <mxGeometry x="491" y="120" width="120" height="80" as="geometry" />
        </mxCell>
        <mxCell id="KrVHmB8MGcx_cQTEwFVy-3" style="edgeStyle=orthogonalEdgeStyle;rounded=0;orthogonalLoop=1;jettySize=auto;html=1;entryX=0.5;entryY=0;entryDx=0;entryDy=0;" edge="1" parent="1" source="KrVHmB8MGcx_cQTEwFVy-4" target="KrVHmB8MGcx_cQTEwFVy-6">
          <mxGeometry relative="1" as="geometry">
            <mxPoint x="551" y="440" as="targetPoint" />
          </mxGeometry>
        </mxCell>
        <mxCell id="KrVHmB8MGcx_cQTEwFVy-4" value="&amp;nbsp;col ,row" style="shape=parallelogram;perimeter=parallelogramPerimeter;whiteSpace=wrap;html=1;fixedSize=1;" vertex="1" parent="1">
          <mxGeometry x="476" y="270" width="150" height="80" as="geometry" />
        </mxCell>
        <mxCell id="KrVHmB8MGcx_cQTEwFVy-5" value="" style="edgeStyle=orthogonalEdgeStyle;rounded=0;orthogonalLoop=1;jettySize=auto;html=1;" edge="1" parent="1" source="KrVHmB8MGcx_cQTEwFVy-6" target="KrVHmB8MGcx_cQTEwFVy-11">
          <mxGeometry relative="1" as="geometry" />
        </mxCell>
        <mxCell id="KrVHmB8MGcx_cQTEwFVy-6" value="i=0,j=0" style="rounded=1;whiteSpace=wrap;html=1;" vertex="1" parent="1">
          <mxGeometry x="491" y="410" width="120" height="60" as="geometry" />
        </mxCell>
        <mxCell id="KrVHmB8MGcx_cQTEwFVy-7" value="" style="edgeStyle=orthogonalEdgeStyle;rounded=0;orthogonalLoop=1;jettySize=auto;html=1;" edge="1" parent="1" source="KrVHmB8MGcx_cQTEwFVy-11" target="KrVHmB8MGcx_cQTEwFVy-16">
          <mxGeometry relative="1" as="geometry" />
        </mxCell>
        <mxCell id="KrVHmB8MGcx_cQTEwFVy-8" value="true" style="edgeLabel;html=1;align=center;verticalAlign=middle;resizable=0;points=[];" vertex="1" connectable="0" parent="KrVHmB8MGcx_cQTEwFVy-7">
          <mxGeometry x="-0.45" relative="1" as="geometry">
            <mxPoint as="offset" />
          </mxGeometry>
        </mxCell>
        <mxCell id="KrVHmB8MGcx_cQTEwFVy-9" style="edgeStyle=orthogonalEdgeStyle;rounded=0;orthogonalLoop=1;jettySize=auto;html=1;" edge="1" parent="1" source="KrVHmB8MGcx_cQTEwFVy-11" target="KrVHmB8MGcx_cQTEwFVy-24">
          <mxGeometry relative="1" as="geometry">
            <mxPoint x="270" y="1270" as="targetPoint" />
          </mxGeometry>
        </mxCell>
        <mxCell id="KrVHmB8MGcx_cQTEwFVy-10" value="false" style="edgeLabel;html=1;align=center;verticalAlign=middle;resizable=0;points=[];" vertex="1" connectable="0" parent="KrVHmB8MGcx_cQTEwFVy-9">
          <mxGeometry x="0.0629" relative="1" as="geometry">
            <mxPoint as="offset" />
          </mxGeometry>
        </mxCell>
        <mxCell id="KrVHmB8MGcx_cQTEwFVy-11" value="i&amp;lt;row" style="rhombus;whiteSpace=wrap;html=1;rounded=1;" vertex="1" parent="1">
          <mxGeometry x="511" y="540" width="80" height="80" as="geometry" />
        </mxCell>
        <mxCell id="KrVHmB8MGcx_cQTEwFVy-12" value="" style="edgeStyle=orthogonalEdgeStyle;rounded=0;orthogonalLoop=1;jettySize=auto;html=1;" edge="1" parent="1" source="KrVHmB8MGcx_cQTEwFVy-16" target="KrVHmB8MGcx_cQTEwFVy-18">
          <mxGeometry relative="1" as="geometry" />
        </mxCell>
        <mxCell id="KrVHmB8MGcx_cQTEwFVy-13" value="true" style="edgeLabel;html=1;align=center;verticalAlign=middle;resizable=0;points=[];" vertex="1" connectable="0" parent="KrVHmB8MGcx_cQTEwFVy-12">
          <mxGeometry x="-0.2889" y="3" relative="1" as="geometry">
            <mxPoint as="offset" />
          </mxGeometry>
        </mxCell>
        <mxCell id="KrVHmB8MGcx_cQTEwFVy-14" value="" style="edgeStyle=orthogonalEdgeStyle;rounded=0;orthogonalLoop=1;jettySize=auto;html=1;" edge="1" parent="1" source="KrVHmB8MGcx_cQTEwFVy-16" target="KrVHmB8MGcx_cQTEwFVy-22">
          <mxGeometry relative="1" as="geometry" />
        </mxCell>
        <mxCell id="KrVHmB8MGcx_cQTEwFVy-15" value="false" style="edgeLabel;html=1;align=center;verticalAlign=middle;resizable=0;points=[];" vertex="1" connectable="0" parent="KrVHmB8MGcx_cQTEwFVy-14">
          <mxGeometry x="-0.0333" y="-1" relative="1" as="geometry">
            <mxPoint as="offset" />
          </mxGeometry>
        </mxCell>
        <mxCell id="KrVHmB8MGcx_cQTEwFVy-16" value="j&amp;lt;col" style="rhombus;whiteSpace=wrap;html=1;rounded=1;" vertex="1" parent="1">
          <mxGeometry x="511" y="700" width="80" height="80" as="geometry" />
        </mxCell>
        <mxCell id="KrVHmB8MGcx_cQTEwFVy-17" value="" style="edgeStyle=orthogonalEdgeStyle;rounded=0;orthogonalLoop=1;jettySize=auto;html=1;" edge="1" parent="1" source="KrVHmB8MGcx_cQTEwFVy-18" target="KrVHmB8MGcx_cQTEwFVy-20">
          <mxGeometry relative="1" as="geometry" />
        </mxCell>
        <mxCell id="KrVHmB8MGcx_cQTEwFVy-18" value="arr[i][j]" style="shape=parallelogram;perimeter=parallelogramPerimeter;whiteSpace=wrap;html=1;fixedSize=1;rounded=1;" vertex="1" parent="1">
          <mxGeometry x="491" y="870" width="120" height="60" as="geometry" />
        </mxCell>
        <mxCell id="KrVHmB8MGcx_cQTEwFVy-19" style="edgeStyle=orthogonalEdgeStyle;rounded=0;orthogonalLoop=1;jettySize=auto;html=1;entryX=0;entryY=0.5;entryDx=0;entryDy=0;" edge="1" parent="1" source="KrVHmB8MGcx_cQTEwFVy-20" target="KrVHmB8MGcx_cQTEwFVy-16">
          <mxGeometry relative="1" as="geometry">
            <mxPoint x="391" y="750" as="targetPoint" />
            <Array as="points">
              <mxPoint x="392" y="1040" />
              <mxPoint x="392" y="740" />
            </Array>
          </mxGeometry>
        </mxCell>
        <mxCell id="KrVHmB8MGcx_cQTEwFVy-20" value="j++" style="rounded=1;whiteSpace=wrap;html=1;" vertex="1" parent="1">
          <mxGeometry x="491" y="1010" width="120" height="60" as="geometry" />
        </mxCell>
        <mxCell id="KrVHmB8MGcx_cQTEwFVy-21" style="edgeStyle=orthogonalEdgeStyle;rounded=0;orthogonalLoop=1;jettySize=auto;html=1;entryX=1;entryY=0.5;entryDx=0;entryDy=0;" edge="1" parent="1" source="KrVHmB8MGcx_cQTEwFVy-22" target="KrVHmB8MGcx_cQTEwFVy-11">
          <mxGeometry relative="1" as="geometry">
            <mxPoint x="711" y="530" as="targetPoint" />
            <Array as="points">
              <mxPoint x="711" y="620" />
              <mxPoint x="712" y="620" />
              <mxPoint x="712" y="580" />
            </Array>
          </mxGeometry>
        </mxCell>
        <mxCell id="KrVHmB8MGcx_cQTEwFVy-22" value="i++" style="whiteSpace=wrap;html=1;rounded=1;" vertex="1" parent="1">
          <mxGeometry x="651" y="710" width="120" height="60" as="geometry" />
        </mxCell>
        <mxCell id="KrVHmB8MGcx_cQTEwFVy-23" value="" style="edgeStyle=orthogonalEdgeStyle;rounded=0;orthogonalLoop=1;jettySize=auto;html=1;" edge="1" parent="1" source="KrVHmB8MGcx_cQTEwFVy-24" target="KrVHmB8MGcx_cQTEwFVy-26">
          <mxGeometry relative="1" as="geometry" />
        </mxCell>
        <mxCell id="KrVHmB8MGcx_cQTEwFVy-24" value="IN MENU" style="rounded=1;whiteSpace=wrap;html=1;" vertex="1" parent="1">
          <mxGeometry x="210" y="1240" width="120" height="60" as="geometry" />
        </mxCell>
        <mxCell id="KrVHmB8MGcx_cQTEwFVy-25" value="" style="edgeStyle=orthogonalEdgeStyle;rounded=0;orthogonalLoop=1;jettySize=auto;html=1;" edge="1" parent="1" source="KrVHmB8MGcx_cQTEwFVy-26" target="KrVHmB8MGcx_cQTEwFVy-31">
          <mxGeometry relative="1" as="geometry" />
        </mxCell>
        <mxCell id="KrVHmB8MGcx_cQTEwFVy-26" value="choice" style="shape=parallelogram;perimeter=parallelogramPerimeter;whiteSpace=wrap;html=1;fixedSize=1;rounded=1;" vertex="1" parent="1">
          <mxGeometry x="210" y="1380" width="120" height="60" as="geometry" />
        </mxCell>
        <mxCell id="KrVHmB8MGcx_cQTEwFVy-27" style="edgeStyle=orthogonalEdgeStyle;rounded=0;orthogonalLoop=1;jettySize=auto;html=1;" edge="1" parent="1" source="KrVHmB8MGcx_cQTEwFVy-31" target="KrVHmB8MGcx_cQTEwFVy-36">
          <mxGeometry relative="1" as="geometry">
            <Array as="points">
              <mxPoint x="351" y="1580" />
              <mxPoint x="351" y="1580" />
            </Array>
          </mxGeometry>
        </mxCell>
        <mxCell id="KrVHmB8MGcx_cQTEwFVy-28" value="true" style="edgeLabel;html=1;align=center;verticalAlign=middle;resizable=0;points=[];" vertex="1" connectable="0" parent="KrVHmB8MGcx_cQTEwFVy-27">
          <mxGeometry x="-0.1775" y="-4" relative="1" as="geometry">
            <mxPoint as="offset" />
          </mxGeometry>
        </mxCell>
        <mxCell id="KrVHmB8MGcx_cQTEwFVy-29" value="" style="edgeStyle=orthogonalEdgeStyle;rounded=0;orthogonalLoop=1;jettySize=auto;html=1;" edge="1" parent="1" source="KrVHmB8MGcx_cQTEwFVy-31" target="KrVHmB8MGcx_cQTEwFVy-51">
          <mxGeometry relative="1" as="geometry" />
        </mxCell>
        <mxCell id="KrVHmB8MGcx_cQTEwFVy-30" value="falese" style="edgeLabel;html=1;align=center;verticalAlign=middle;resizable=0;points=[];" vertex="1" connectable="0" parent="KrVHmB8MGcx_cQTEwFVy-29">
          <mxGeometry x="-0.0857" y="-5" relative="1" as="geometry">
            <mxPoint y="1" as="offset" />
          </mxGeometry>
        </mxCell>
        <mxCell id="KrVHmB8MGcx_cQTEwFVy-31" value="choice==1" style="rhombus;whiteSpace=wrap;html=1;rounded=1;" vertex="1" parent="1">
          <mxGeometry x="214.5" y="1525" width="111" height="110" as="geometry" />
        </mxCell>
        <mxCell id="KrVHmB8MGcx_cQTEwFVy-32" value="" style="edgeStyle=orthogonalEdgeStyle;rounded=0;orthogonalLoop=1;jettySize=auto;html=1;" edge="1" parent="1" source="KrVHmB8MGcx_cQTEwFVy-36" target="KrVHmB8MGcx_cQTEwFVy-40">
          <mxGeometry relative="1" as="geometry" />
        </mxCell>
        <mxCell id="KrVHmB8MGcx_cQTEwFVy-33" value="true" style="edgeLabel;html=1;align=center;verticalAlign=middle;resizable=0;points=[];" vertex="1" connectable="0" parent="KrVHmB8MGcx_cQTEwFVy-32">
          <mxGeometry x="-0.45" relative="1" as="geometry">
            <mxPoint as="offset" />
          </mxGeometry>
        </mxCell>
        <mxCell id="KrVHmB8MGcx_cQTEwFVy-34" style="edgeStyle=orthogonalEdgeStyle;rounded=0;orthogonalLoop=1;jettySize=auto;html=1;" edge="1" parent="1" source="KrVHmB8MGcx_cQTEwFVy-36">
          <mxGeometry relative="1" as="geometry">
            <mxPoint x="271" y="1140" as="targetPoint" />
            <Array as="points">
              <mxPoint x="430" y="1770" />
              <mxPoint x="1331" y="1770" />
              <mxPoint x="1331" y="1130" />
              <mxPoint x="271" y="1130" />
            </Array>
          </mxGeometry>
        </mxCell>
        <mxCell id="KrVHmB8MGcx_cQTEwFVy-35" value="false" style="edgeLabel;html=1;align=center;verticalAlign=middle;resizable=0;points=[];" vertex="1" connectable="0" parent="KrVHmB8MGcx_cQTEwFVy-34">
          <mxGeometry x="-0.6391" y="-6" relative="1" as="geometry">
            <mxPoint as="offset" />
          </mxGeometry>
        </mxCell>
        <mxCell id="KrVHmB8MGcx_cQTEwFVy-36" value="i&amp;lt;row" style="rhombus;whiteSpace=wrap;html=1;rounded=1;" vertex="1" parent="1">
          <mxGeometry x="389.94" y="1540" width="80" height="80" as="geometry" />
        </mxCell>
        <mxCell id="KrVHmB8MGcx_cQTEwFVy-37" value="" style="edgeStyle=orthogonalEdgeStyle;rounded=0;orthogonalLoop=1;jettySize=auto;html=1;" edge="1" parent="1" source="KrVHmB8MGcx_cQTEwFVy-40" target="KrVHmB8MGcx_cQTEwFVy-42">
          <mxGeometry relative="1" as="geometry" />
        </mxCell>
        <mxCell id="KrVHmB8MGcx_cQTEwFVy-38" value="true" style="edgeLabel;html=1;align=center;verticalAlign=middle;resizable=0;points=[];" vertex="1" connectable="0" parent="KrVHmB8MGcx_cQTEwFVy-37">
          <mxGeometry x="-0.2889" y="3" relative="1" as="geometry">
            <mxPoint as="offset" />
          </mxGeometry>
        </mxCell>
        <mxCell id="KrVHmB8MGcx_cQTEwFVy-39" value="false" style="edgeStyle=orthogonalEdgeStyle;rounded=0;orthogonalLoop=1;jettySize=auto;html=1;entryX=1;entryY=0.5;entryDx=0;entryDy=0;" edge="1" parent="1" source="KrVHmB8MGcx_cQTEwFVy-40" target="KrVHmB8MGcx_cQTEwFVy-46">
          <mxGeometry relative="1" as="geometry">
            <Array as="points">
              <mxPoint x="631" y="1460" />
              <mxPoint x="510" y="1460" />
            </Array>
          </mxGeometry>
        </mxCell>
        <mxCell id="KrVHmB8MGcx_cQTEwFVy-40" value="j&amp;lt;col" style="rhombus;whiteSpace=wrap;html=1;rounded=1;" vertex="1" parent="1">
          <mxGeometry x="591" y="1540" width="80" height="80" as="geometry" />
        </mxCell>
        <mxCell id="KrVHmB8MGcx_cQTEwFVy-41" value="" style="edgeStyle=orthogonalEdgeStyle;rounded=0;orthogonalLoop=1;jettySize=auto;html=1;" edge="1" parent="1" source="KrVHmB8MGcx_cQTEwFVy-42" target="KrVHmB8MGcx_cQTEwFVy-44">
          <mxGeometry relative="1" as="geometry" />
        </mxCell>
        <mxCell id="KrVHmB8MGcx_cQTEwFVy-42" value="arr[i][j]" style="shape=parallelogram;perimeter=parallelogramPerimeter;whiteSpace=wrap;html=1;fixedSize=1;rounded=1;" vertex="1" parent="1">
          <mxGeometry x="771" y="1550" width="120" height="60" as="geometry" />
        </mxCell>
        <mxCell id="KrVHmB8MGcx_cQTEwFVy-43" style="edgeStyle=orthogonalEdgeStyle;rounded=0;orthogonalLoop=1;jettySize=auto;html=1;entryX=0.5;entryY=1;entryDx=0;entryDy=0;" edge="1" parent="1" source="KrVHmB8MGcx_cQTEwFVy-44" target="KrVHmB8MGcx_cQTEwFVy-40">
          <mxGeometry relative="1" as="geometry">
            <mxPoint x="631" y="1650" as="targetPoint" />
            <Array as="points">
              <mxPoint x="1081" y="1670" />
              <mxPoint x="631" y="1670" />
            </Array>
          </mxGeometry>
        </mxCell>
        <mxCell id="KrVHmB8MGcx_cQTEwFVy-44" value="j++" style="rounded=1;whiteSpace=wrap;html=1;" vertex="1" parent="1">
          <mxGeometry x="1021" y="1550" width="120" height="60" as="geometry" />
        </mxCell>
        <mxCell id="KrVHmB8MGcx_cQTEwFVy-45" style="edgeStyle=orthogonalEdgeStyle;rounded=0;orthogonalLoop=1;jettySize=auto;html=1;entryX=0.5;entryY=0;entryDx=0;entryDy=0;" edge="1" parent="1" source="KrVHmB8MGcx_cQTEwFVy-46" target="KrVHmB8MGcx_cQTEwFVy-36">
          <mxGeometry relative="1" as="geometry">
            <mxPoint x="430" y="1510" as="targetPoint" />
            <Array as="points">
              <mxPoint x="430" y="1440" />
              <mxPoint x="431" y="1480" />
              <mxPoint x="430" y="1480" />
            </Array>
          </mxGeometry>
        </mxCell>
        <mxCell id="KrVHmB8MGcx_cQTEwFVy-46" value="i++" style="whiteSpace=wrap;html=1;rounded=1;" vertex="1" parent="1">
          <mxGeometry x="389.94" y="1440" width="120" height="60" as="geometry" />
        </mxCell>
        <mxCell id="KrVHmB8MGcx_cQTEwFVy-47" style="edgeStyle=orthogonalEdgeStyle;rounded=0;orthogonalLoop=1;jettySize=auto;html=1;entryX=0;entryY=0.5;entryDx=0;entryDy=0;" edge="1" parent="1" source="KrVHmB8MGcx_cQTEwFVy-51" target="KrVHmB8MGcx_cQTEwFVy-56">
          <mxGeometry relative="1" as="geometry" />
        </mxCell>
        <mxCell id="KrVHmB8MGcx_cQTEwFVy-48" value="true" style="edgeLabel;html=1;align=center;verticalAlign=middle;resizable=0;points=[];" vertex="1" connectable="0" parent="KrVHmB8MGcx_cQTEwFVy-47">
          <mxGeometry x="-0.1341" y="2" relative="1" as="geometry">
            <mxPoint as="offset" />
          </mxGeometry>
        </mxCell>
        <mxCell id="KrVHmB8MGcx_cQTEwFVy-49" value="" style="edgeStyle=orthogonalEdgeStyle;rounded=0;orthogonalLoop=1;jettySize=auto;html=1;" edge="1" parent="1" source="KrVHmB8MGcx_cQTEwFVy-51" target="KrVHmB8MGcx_cQTEwFVy-103">
          <mxGeometry relative="1" as="geometry" />
        </mxCell>
        <mxCell id="KrVHmB8MGcx_cQTEwFVy-50" value="false" style="edgeLabel;html=1;align=center;verticalAlign=middle;resizable=0;points=[];" vertex="1" connectable="0" parent="KrVHmB8MGcx_cQTEwFVy-49">
          <mxGeometry x="0.0226" relative="1" as="geometry">
            <mxPoint y="1" as="offset" />
          </mxGeometry>
        </mxCell>
        <mxCell id="KrVHmB8MGcx_cQTEwFVy-51" value="choice==2" style="rhombus;whiteSpace=wrap;html=1;rounded=1;" vertex="1" parent="1">
          <mxGeometry x="214.5" y="2020" width="111" height="110" as="geometry" />
        </mxCell>
        <mxCell id="KrVHmB8MGcx_cQTEwFVy-52" value="" style="edgeStyle=orthogonalEdgeStyle;rounded=0;orthogonalLoop=1;jettySize=auto;html=1;" edge="1" parent="1" source="KrVHmB8MGcx_cQTEwFVy-56" target="KrVHmB8MGcx_cQTEwFVy-60">
          <mxGeometry relative="1" as="geometry" />
        </mxCell>
        <mxCell id="KrVHmB8MGcx_cQTEwFVy-53" value="true" style="edgeLabel;html=1;align=center;verticalAlign=middle;resizable=0;points=[];" vertex="1" connectable="0" parent="KrVHmB8MGcx_cQTEwFVy-52">
          <mxGeometry x="-0.45" relative="1" as="geometry">
            <mxPoint as="offset" />
          </mxGeometry>
        </mxCell>
        <mxCell id="KrVHmB8MGcx_cQTEwFVy-54" style="edgeStyle=orthogonalEdgeStyle;rounded=0;orthogonalLoop=1;jettySize=auto;html=1;" edge="1" parent="1" source="KrVHmB8MGcx_cQTEwFVy-56">
          <mxGeometry relative="1" as="geometry">
            <mxPoint x="1151" y="1140" as="targetPoint" />
            <Array as="points">
              <mxPoint x="492" y="2440" />
              <mxPoint x="2281" y="2440" />
              <mxPoint x="2281" y="1130" />
              <mxPoint x="1151" y="1130" />
            </Array>
          </mxGeometry>
        </mxCell>
        <mxCell id="KrVHmB8MGcx_cQTEwFVy-55" value="false" style="edgeLabel;html=1;align=center;verticalAlign=middle;resizable=0;points=[];" vertex="1" connectable="0" parent="KrVHmB8MGcx_cQTEwFVy-54">
          <mxGeometry x="-0.5512" y="-9" relative="1" as="geometry">
            <mxPoint as="offset" />
          </mxGeometry>
        </mxCell>
        <mxCell id="KrVHmB8MGcx_cQTEwFVy-56" value="i&amp;lt;row" style="rhombus;whiteSpace=wrap;html=1;rounded=1;" vertex="1" parent="1">
          <mxGeometry x="451" y="2030" width="80" height="80" as="geometry" />
        </mxCell>
        <mxCell id="KrVHmB8MGcx_cQTEwFVy-57" value="" style="edgeStyle=orthogonalEdgeStyle;rounded=0;orthogonalLoop=1;jettySize=auto;html=1;entryX=0;entryY=0.5;entryDx=0;entryDy=0;" edge="1" parent="1" source="KrVHmB8MGcx_cQTEwFVy-60" target="KrVHmB8MGcx_cQTEwFVy-66">
          <mxGeometry relative="1" as="geometry">
            <mxPoint x="841" y="2070" as="targetPoint" />
          </mxGeometry>
        </mxCell>
        <mxCell id="KrVHmB8MGcx_cQTEwFVy-58" value="true" style="edgeLabel;html=1;align=center;verticalAlign=middle;resizable=0;points=[];" vertex="1" connectable="0" parent="KrVHmB8MGcx_cQTEwFVy-57">
          <mxGeometry x="-0.2889" y="3" relative="1" as="geometry">
            <mxPoint as="offset" />
          </mxGeometry>
        </mxCell>
        <mxCell id="KrVHmB8MGcx_cQTEwFVy-59" value="false" style="edgeStyle=orthogonalEdgeStyle;rounded=0;orthogonalLoop=1;jettySize=auto;html=1;entryX=1;entryY=0.5;entryDx=0;entryDy=0;" edge="1" parent="1" source="KrVHmB8MGcx_cQTEwFVy-60" target="KrVHmB8MGcx_cQTEwFVy-64">
          <mxGeometry relative="1" as="geometry">
            <Array as="points">
              <mxPoint x="692.06" y="1950" />
              <mxPoint x="571.06" y="1950" />
            </Array>
          </mxGeometry>
        </mxCell>
        <mxCell id="KrVHmB8MGcx_cQTEwFVy-60" value="j&amp;lt;col" style="rhombus;whiteSpace=wrap;html=1;rounded=1;" vertex="1" parent="1">
          <mxGeometry x="652.06" y="2030" width="80" height="80" as="geometry" />
        </mxCell>
        <mxCell id="KrVHmB8MGcx_cQTEwFVy-61" style="edgeStyle=orthogonalEdgeStyle;rounded=0;orthogonalLoop=1;jettySize=auto;html=1;" edge="1" parent="1" source="KrVHmB8MGcx_cQTEwFVy-62">
          <mxGeometry relative="1" as="geometry">
            <mxPoint x="621" y="2070" as="targetPoint" />
            <Array as="points">
              <mxPoint x="1761" y="2310" />
              <mxPoint x="621" y="2310" />
            </Array>
          </mxGeometry>
        </mxCell>
        <mxCell id="KrVHmB8MGcx_cQTEwFVy-62" value="j++" style="rounded=1;whiteSpace=wrap;html=1;" vertex="1" parent="1">
          <mxGeometry x="1661" y="2040" width="120" height="60" as="geometry" />
        </mxCell>
        <mxCell id="KrVHmB8MGcx_cQTEwFVy-63" style="edgeStyle=orthogonalEdgeStyle;rounded=0;orthogonalLoop=1;jettySize=auto;html=1;entryX=0.5;entryY=0;entryDx=0;entryDy=0;" edge="1" parent="1" source="KrVHmB8MGcx_cQTEwFVy-64" target="KrVHmB8MGcx_cQTEwFVy-56">
          <mxGeometry relative="1" as="geometry">
            <mxPoint x="491.06" y="2000" as="targetPoint" />
            <Array as="points">
              <mxPoint x="491.06" y="1930" />
              <mxPoint x="492.06" y="1970" />
              <mxPoint x="491.06" y="1970" />
            </Array>
          </mxGeometry>
        </mxCell>
        <mxCell id="KrVHmB8MGcx_cQTEwFVy-64" value="i++" style="whiteSpace=wrap;html=1;rounded=1;" vertex="1" parent="1">
          <mxGeometry x="451" y="1930" width="120" height="60" as="geometry" />
        </mxCell>
        <mxCell id="KrVHmB8MGcx_cQTEwFVy-65" value="" style="edgeStyle=orthogonalEdgeStyle;rounded=0;orthogonalLoop=1;jettySize=auto;html=1;" edge="1" parent="1" source="KrVHmB8MGcx_cQTEwFVy-66" target="KrVHmB8MGcx_cQTEwFVy-71">
          <mxGeometry relative="1" as="geometry" />
        </mxCell>
        <mxCell id="KrVHmB8MGcx_cQTEwFVy-66" value="arr[i][j]&lt;br&gt;f=i-1" style="shape=parallelogram;perimeter=parallelogramPerimeter;whiteSpace=wrap;html=1;fixedSize=1;" vertex="1" parent="1">
          <mxGeometry x="831" y="2040" width="120" height="60" as="geometry" />
        </mxCell>
        <mxCell id="KrVHmB8MGcx_cQTEwFVy-67" value="" style="edgeStyle=orthogonalEdgeStyle;rounded=0;orthogonalLoop=1;jettySize=auto;html=1;" edge="1" parent="1" source="KrVHmB8MGcx_cQTEwFVy-71" target="KrVHmB8MGcx_cQTEwFVy-73">
          <mxGeometry relative="1" as="geometry" />
        </mxCell>
        <mxCell id="KrVHmB8MGcx_cQTEwFVy-68" value="true" style="edgeLabel;html=1;align=center;verticalAlign=middle;resizable=0;points=[];" vertex="1" connectable="0" parent="KrVHmB8MGcx_cQTEwFVy-67">
          <mxGeometry x="-0.2099" y="6" relative="1" as="geometry">
            <mxPoint as="offset" />
          </mxGeometry>
        </mxCell>
        <mxCell id="KrVHmB8MGcx_cQTEwFVy-69" value="" style="edgeStyle=orthogonalEdgeStyle;rounded=0;orthogonalLoop=1;jettySize=auto;html=1;" edge="1" parent="1" source="KrVHmB8MGcx_cQTEwFVy-71" target="KrVHmB8MGcx_cQTEwFVy-75">
          <mxGeometry relative="1" as="geometry" />
        </mxCell>
        <mxCell id="KrVHmB8MGcx_cQTEwFVy-70" value="false" style="edgeLabel;html=1;align=center;verticalAlign=middle;resizable=0;points=[];" vertex="1" connectable="0" parent="KrVHmB8MGcx_cQTEwFVy-69">
          <mxGeometry x="-0.2061" y="1" relative="1" as="geometry">
            <mxPoint as="offset" />
          </mxGeometry>
        </mxCell>
        <mxCell id="KrVHmB8MGcx_cQTEwFVy-71" value="&#xa;&lt;div style=&quot;color: rgb(212, 212, 212); background-color: rgb(30, 30, 30); font-family: Consolas, &amp;quot;Courier New&amp;quot;, monospace; font-weight: normal; font-size: 14px; line-height: 19px;&quot;&gt;&lt;div&gt;&lt;span style=&quot;color: #c8c8c8;&quot;&gt;f&lt;/span&gt;&lt;span style=&quot;color: #d4d4d4;&quot;&gt;&amp;gt;=&lt;/span&gt;&lt;span style=&quot;color: #b5cea8;&quot;&gt;0&lt;/span&gt;&lt;span style=&quot;color: #d4d4d4;&quot;&gt;&amp;amp;&amp;amp;&lt;/span&gt;&lt;span style=&quot;color: #c8c8c8;&quot;&gt;key&lt;/span&gt;&lt;span style=&quot;color: #d4d4d4;&quot;&gt;&amp;lt;&lt;/span&gt;&lt;span style=&quot;color: #c8c8c8;&quot;&gt;arr&lt;/span&gt;&lt;span style=&quot;color: #d4d4d4;&quot;&gt;[&lt;/span&gt;&lt;span style=&quot;color: #c8c8c8;&quot;&gt;i&lt;/span&gt;&lt;span style=&quot;color: #d4d4d4;&quot;&gt;][&lt;/span&gt;&lt;span style=&quot;color: #c8c8c8;&quot;&gt;f&lt;/span&gt;&lt;/div&gt;&lt;/div&gt;&#xa;&#xa;" style="rhombus;whiteSpace=wrap;html=1;" vertex="1" parent="1">
          <mxGeometry x="1011" y="2000" width="180" height="140" as="geometry" />
        </mxCell>
        <mxCell id="KrVHmB8MGcx_cQTEwFVy-72" style="edgeStyle=orthogonalEdgeStyle;rounded=0;orthogonalLoop=1;jettySize=auto;html=1;" edge="1" parent="1" source="KrVHmB8MGcx_cQTEwFVy-73">
          <mxGeometry relative="1" as="geometry">
            <mxPoint x="971" y="2070" as="targetPoint" />
          </mxGeometry>
        </mxCell>
        <mxCell id="KrVHmB8MGcx_cQTEwFVy-73" value="&lt;br&gt;&lt;div style=&quot;color: rgb(212, 212, 212); background-color: rgb(30, 30, 30); font-family: Consolas, &amp;quot;Courier New&amp;quot;, monospace; font-weight: normal; font-size: 14px; line-height: 19px;&quot;&gt;&lt;div&gt;&lt;span style=&quot;color: #d4d4d4;&quot;&gt;&amp;nbsp; &lt;/span&gt;&lt;span style=&quot;color: #c8c8c8;&quot;&gt;arr&lt;/span&gt;&lt;span style=&quot;color: #d4d4d4;&quot;&gt;[&lt;/span&gt;&lt;span style=&quot;color: #c8c8c8;&quot;&gt;i&lt;/span&gt;&lt;span style=&quot;color: #d4d4d4;&quot;&gt;][&lt;/span&gt;&lt;span style=&quot;color: #c8c8c8;&quot;&gt;f&lt;/span&gt;&lt;span style=&quot;color: #d4d4d4;&quot;&gt;+&lt;/span&gt;&lt;span style=&quot;color: #b5cea8;&quot;&gt;1&lt;/span&gt;&lt;span style=&quot;color: #d4d4d4;&quot;&gt;]=&lt;/span&gt;&lt;span style=&quot;color: #c8c8c8;&quot;&gt;arr&lt;/span&gt;&lt;span style=&quot;color: #d4d4d4;&quot;&gt;[&lt;/span&gt;&lt;span style=&quot;color: #c8c8c8;&quot;&gt;i&lt;/span&gt;&lt;span style=&quot;color: #d4d4d4;&quot;&gt;][&lt;/span&gt;&lt;span style=&quot;color: #c8c8c8;&quot;&gt;f&lt;/span&gt;&lt;span style=&quot;color: #d4d4d4;&quot;&gt;]&lt;/span&gt;&lt;/div&gt;&lt;div&gt;&amp;nbsp; &amp;nbsp;&lt;span style=&quot;color: rgb(200, 200, 200);&quot;&gt;f&lt;/span&gt;-=&lt;span style=&quot;color: rgb(181, 206, 168);&quot;&gt;1&lt;/span&gt;;&lt;/div&gt;&lt;/div&gt;&lt;br&gt;" style="whiteSpace=wrap;html=1;" vertex="1" parent="1">
          <mxGeometry x="991" y="2220" width="220" height="60" as="geometry" />
        </mxCell>
        <mxCell id="KrVHmB8MGcx_cQTEwFVy-74" style="edgeStyle=orthogonalEdgeStyle;rounded=0;orthogonalLoop=1;jettySize=auto;html=1;entryX=0;entryY=0.5;entryDx=0;entryDy=0;" edge="1" parent="1" source="KrVHmB8MGcx_cQTEwFVy-75" target="KrVHmB8MGcx_cQTEwFVy-62">
          <mxGeometry relative="1" as="geometry" />
        </mxCell>
        <mxCell id="KrVHmB8MGcx_cQTEwFVy-75" value="&#xa;&lt;div style=&quot;color: rgb(212, 212, 212); background-color: rgb(30, 30, 30); font-family: Consolas, &amp;quot;Courier New&amp;quot;, monospace; font-weight: normal; font-size: 14px; line-height: 19px;&quot;&gt;&lt;div&gt;&lt;span style=&quot;color: #d4d4d4;&quot;&gt;&amp;nbsp;&lt;/span&gt;&lt;span style=&quot;color: #c8c8c8;&quot;&gt;arr&lt;/span&gt;&lt;span style=&quot;color: #d4d4d4;&quot;&gt;[&lt;/span&gt;&lt;span style=&quot;color: #c8c8c8;&quot;&gt;i&lt;/span&gt;&lt;span style=&quot;color: #d4d4d4;&quot;&gt;][&lt;/span&gt;&lt;span style=&quot;color: #c8c8c8;&quot;&gt;f&lt;/span&gt;&lt;span style=&quot;color: #d4d4d4;&quot;&gt;+&lt;/span&gt;&lt;span style=&quot;color: #b5cea8;&quot;&gt;1&lt;/span&gt;&lt;span style=&quot;color: #d4d4d4;&quot;&gt;]=&lt;/span&gt;&lt;span style=&quot;color: #c8c8c8;&quot;&gt;key&lt;/span&gt;&lt;span style=&quot;color: #d4d4d4;&quot;&gt;;&lt;/span&gt;&lt;/div&gt;&lt;/div&gt;&#xa;&#xa;" style="whiteSpace=wrap;html=1;" vertex="1" parent="1">
          <mxGeometry x="1301" y="2040" width="190" height="60" as="geometry" />
        </mxCell>
        <mxCell id="KrVHmB8MGcx_cQTEwFVy-76" value="" style="edgeStyle=orthogonalEdgeStyle;rounded=0;orthogonalLoop=1;jettySize=auto;html=1;" edge="1" parent="1" source="KrVHmB8MGcx_cQTEwFVy-80" target="KrVHmB8MGcx_cQTEwFVy-84">
          <mxGeometry relative="1" as="geometry" />
        </mxCell>
        <mxCell id="KrVHmB8MGcx_cQTEwFVy-77" value="true" style="edgeLabel;html=1;align=center;verticalAlign=middle;resizable=0;points=[];" vertex="1" connectable="0" parent="KrVHmB8MGcx_cQTEwFVy-76">
          <mxGeometry x="-0.45" relative="1" as="geometry">
            <mxPoint as="offset" />
          </mxGeometry>
        </mxCell>
        <mxCell id="KrVHmB8MGcx_cQTEwFVy-78" style="edgeStyle=orthogonalEdgeStyle;rounded=0;orthogonalLoop=1;jettySize=auto;html=1;" edge="1" parent="1" source="KrVHmB8MGcx_cQTEwFVy-80">
          <mxGeometry relative="1" as="geometry">
            <mxPoint x="2281" y="2292.5" as="targetPoint" />
            <Array as="points">
              <mxPoint x="502" y="3110" />
              <mxPoint x="2281" y="3110" />
            </Array>
          </mxGeometry>
        </mxCell>
        <mxCell id="KrVHmB8MGcx_cQTEwFVy-79" value="false" style="edgeLabel;html=1;align=center;verticalAlign=middle;resizable=0;points=[];" vertex="1" connectable="0" parent="KrVHmB8MGcx_cQTEwFVy-78">
          <mxGeometry x="-0.8626" y="-1" relative="1" as="geometry">
            <mxPoint x="-1" y="-1" as="offset" />
          </mxGeometry>
        </mxCell>
        <mxCell id="KrVHmB8MGcx_cQTEwFVy-80" value="i&amp;lt;col" style="rhombus;whiteSpace=wrap;html=1;rounded=1;" vertex="1" parent="1">
          <mxGeometry x="461" y="2650" width="80" height="80" as="geometry" />
        </mxCell>
        <mxCell id="KrVHmB8MGcx_cQTEwFVy-81" value="" style="edgeStyle=orthogonalEdgeStyle;rounded=0;orthogonalLoop=1;jettySize=auto;html=1;entryX=0;entryY=0.5;entryDx=0;entryDy=0;" edge="1" parent="1" source="KrVHmB8MGcx_cQTEwFVy-84" target="KrVHmB8MGcx_cQTEwFVy-90">
          <mxGeometry relative="1" as="geometry">
            <mxPoint x="851" y="2690" as="targetPoint" />
          </mxGeometry>
        </mxCell>
        <mxCell id="KrVHmB8MGcx_cQTEwFVy-82" value="true" style="edgeLabel;html=1;align=center;verticalAlign=middle;resizable=0;points=[];" vertex="1" connectable="0" parent="KrVHmB8MGcx_cQTEwFVy-81">
          <mxGeometry x="-0.2889" y="3" relative="1" as="geometry">
            <mxPoint as="offset" />
          </mxGeometry>
        </mxCell>
        <mxCell id="KrVHmB8MGcx_cQTEwFVy-83" value="false" style="edgeStyle=orthogonalEdgeStyle;rounded=0;orthogonalLoop=1;jettySize=auto;html=1;entryX=1;entryY=0.5;entryDx=0;entryDy=0;" edge="1" parent="1" source="KrVHmB8MGcx_cQTEwFVy-84" target="KrVHmB8MGcx_cQTEwFVy-88">
          <mxGeometry relative="1" as="geometry">
            <Array as="points">
              <mxPoint x="702.06" y="2570" />
              <mxPoint x="581.06" y="2570" />
            </Array>
          </mxGeometry>
        </mxCell>
        <mxCell id="KrVHmB8MGcx_cQTEwFVy-84" value="j&amp;lt;row" style="rhombus;whiteSpace=wrap;html=1;rounded=1;" vertex="1" parent="1">
          <mxGeometry x="662.06" y="2650" width="80" height="80" as="geometry" />
        </mxCell>
        <mxCell id="KrVHmB8MGcx_cQTEwFVy-85" style="edgeStyle=orthogonalEdgeStyle;rounded=0;orthogonalLoop=1;jettySize=auto;html=1;entryX=0.417;entryY=0.963;entryDx=0;entryDy=0;entryPerimeter=0;" edge="1" parent="1" source="KrVHmB8MGcx_cQTEwFVy-86" target="KrVHmB8MGcx_cQTEwFVy-84">
          <mxGeometry relative="1" as="geometry">
            <mxPoint x="791" y="2990" as="targetPoint" />
            <Array as="points">
              <mxPoint x="1771" y="2930" />
              <mxPoint x="695" y="2930" />
            </Array>
          </mxGeometry>
        </mxCell>
        <mxCell id="KrVHmB8MGcx_cQTEwFVy-86" value="j++" style="rounded=1;whiteSpace=wrap;html=1;" vertex="1" parent="1">
          <mxGeometry x="1671" y="2660" width="120" height="60" as="geometry" />
        </mxCell>
        <mxCell id="KrVHmB8MGcx_cQTEwFVy-87" style="edgeStyle=orthogonalEdgeStyle;rounded=0;orthogonalLoop=1;jettySize=auto;html=1;entryX=0.5;entryY=0;entryDx=0;entryDy=0;" edge="1" parent="1" source="KrVHmB8MGcx_cQTEwFVy-88" target="KrVHmB8MGcx_cQTEwFVy-80">
          <mxGeometry relative="1" as="geometry">
            <mxPoint x="501.06" y="2620" as="targetPoint" />
            <Array as="points">
              <mxPoint x="501.06" y="2550" />
              <mxPoint x="502.06" y="2590" />
              <mxPoint x="501.06" y="2590" />
            </Array>
          </mxGeometry>
        </mxCell>
        <mxCell id="KrVHmB8MGcx_cQTEwFVy-88" value="i++" style="whiteSpace=wrap;html=1;rounded=1;" vertex="1" parent="1">
          <mxGeometry x="461" y="2550" width="120" height="60" as="geometry" />
        </mxCell>
        <mxCell id="KrVHmB8MGcx_cQTEwFVy-89" value="" style="edgeStyle=orthogonalEdgeStyle;rounded=0;orthogonalLoop=1;jettySize=auto;html=1;" edge="1" parent="1" source="KrVHmB8MGcx_cQTEwFVy-90" target="KrVHmB8MGcx_cQTEwFVy-95">
          <mxGeometry relative="1" as="geometry" />
        </mxCell>
        <mxCell id="KrVHmB8MGcx_cQTEwFVy-90" value="arr[f][i]&lt;br&gt;f=i-1" style="shape=parallelogram;perimeter=parallelogramPerimeter;whiteSpace=wrap;html=1;fixedSize=1;" vertex="1" parent="1">
          <mxGeometry x="841" y="2660" width="120" height="60" as="geometry" />
        </mxCell>
        <mxCell id="KrVHmB8MGcx_cQTEwFVy-91" value="" style="edgeStyle=orthogonalEdgeStyle;rounded=0;orthogonalLoop=1;jettySize=auto;html=1;" edge="1" parent="1" source="KrVHmB8MGcx_cQTEwFVy-95" target="KrVHmB8MGcx_cQTEwFVy-97">
          <mxGeometry relative="1" as="geometry" />
        </mxCell>
        <mxCell id="KrVHmB8MGcx_cQTEwFVy-92" value="true" style="edgeLabel;html=1;align=center;verticalAlign=middle;resizable=0;points=[];" vertex="1" connectable="0" parent="KrVHmB8MGcx_cQTEwFVy-91">
          <mxGeometry x="-0.2099" y="6" relative="1" as="geometry">
            <mxPoint as="offset" />
          </mxGeometry>
        </mxCell>
        <mxCell id="KrVHmB8MGcx_cQTEwFVy-93" value="" style="edgeStyle=orthogonalEdgeStyle;rounded=0;orthogonalLoop=1;jettySize=auto;html=1;" edge="1" parent="1" source="KrVHmB8MGcx_cQTEwFVy-95" target="KrVHmB8MGcx_cQTEwFVy-99">
          <mxGeometry relative="1" as="geometry" />
        </mxCell>
        <mxCell id="KrVHmB8MGcx_cQTEwFVy-94" value="false" style="edgeLabel;html=1;align=center;verticalAlign=middle;resizable=0;points=[];" vertex="1" connectable="0" parent="KrVHmB8MGcx_cQTEwFVy-93">
          <mxGeometry x="-0.2061" y="1" relative="1" as="geometry">
            <mxPoint as="offset" />
          </mxGeometry>
        </mxCell>
        <mxCell id="KrVHmB8MGcx_cQTEwFVy-95" value="&lt;div style=&quot;color: rgb(212, 212, 212); background-color: rgb(30, 30, 30); font-family: Consolas, &amp;quot;Courier New&amp;quot;, monospace; font-size: 14px; line-height: 19px;&quot;&gt;f&amp;gt;=&lt;span style=&quot;color: #b5cea8;&quot;&gt;0&lt;/span&gt;&amp;amp;&amp;amp;&lt;span style=&quot;color: #c8c8c8;&quot;&gt;key&lt;/span&gt;&amp;gt;&lt;span style=&quot;color: #c8c8c8;&quot;&gt;arr&lt;/span&gt;[&lt;span style=&quot;color: #c8c8c8;&quot;&gt;f&lt;/span&gt;][&lt;span style=&quot;color: #c8c8c8;&quot;&gt;i&lt;/span&gt;]&lt;/div&gt;" style="rhombus;whiteSpace=wrap;html=1;" vertex="1" parent="1">
          <mxGeometry x="1021" y="2620" width="180" height="140" as="geometry" />
        </mxCell>
        <mxCell id="KrVHmB8MGcx_cQTEwFVy-96" style="edgeStyle=orthogonalEdgeStyle;rounded=0;orthogonalLoop=1;jettySize=auto;html=1;" edge="1" parent="1" source="KrVHmB8MGcx_cQTEwFVy-97">
          <mxGeometry relative="1" as="geometry">
            <mxPoint x="981" y="2690" as="targetPoint" />
          </mxGeometry>
        </mxCell>
        <mxCell id="KrVHmB8MGcx_cQTEwFVy-97" value="&lt;div style=&quot;color: rgb(212, 212, 212); background-color: rgb(30, 30, 30); font-family: Consolas, &amp;quot;Courier New&amp;quot;, monospace; font-size: 14px; line-height: 19px;&quot;&gt;&lt;div&gt;&amp;nbsp;arr[&lt;span style=&quot;color: #c8c8c8;&quot;&gt;f&lt;/span&gt;+&lt;span style=&quot;color: #b5cea8;&quot;&gt;1&lt;/span&gt;][&lt;span style=&quot;color: #c8c8c8;&quot;&gt;i&lt;/span&gt;]=&lt;span style=&quot;color: #c8c8c8;&quot;&gt;arr&lt;/span&gt;[&lt;span style=&quot;color: #c8c8c8;&quot;&gt;f&lt;/span&gt;][&lt;span style=&quot;color: #c8c8c8;&quot;&gt;i&lt;/span&gt;]&lt;/div&gt;&lt;div&gt;&amp;nbsp;&amp;nbsp;&lt;span style=&quot;color: rgb(200, 200, 200);&quot;&gt;f&lt;/span&gt;-=&lt;span style=&quot;color: rgb(181, 206, 168);&quot;&gt;1&lt;/span&gt;;&lt;/div&gt;&lt;/div&gt;" style="whiteSpace=wrap;html=1;" vertex="1" parent="1">
          <mxGeometry x="1001" y="2840" width="220" height="60" as="geometry" />
        </mxCell>
        <mxCell id="KrVHmB8MGcx_cQTEwFVy-98" style="edgeStyle=orthogonalEdgeStyle;rounded=0;orthogonalLoop=1;jettySize=auto;html=1;entryX=0;entryY=0.5;entryDx=0;entryDy=0;" edge="1" parent="1" source="KrVHmB8MGcx_cQTEwFVy-99" target="KrVHmB8MGcx_cQTEwFVy-86">
          <mxGeometry relative="1" as="geometry" />
        </mxCell>
        <mxCell id="KrVHmB8MGcx_cQTEwFVy-99" value="&lt;div style=&quot;color: rgb(212, 212, 212); background-color: rgb(30, 30, 30); font-family: Consolas, &amp;quot;Courier New&amp;quot;, monospace; font-size: 14px; line-height: 19px;&quot;&gt;arr[&lt;span style=&quot;color: #c8c8c8;&quot;&gt;f&lt;/span&gt;+&lt;span style=&quot;color: #b5cea8;&quot;&gt;1&lt;/span&gt;][&lt;span style=&quot;color: #c8c8c8;&quot;&gt;i&lt;/span&gt;]=&lt;span style=&quot;color: #c8c8c8;&quot;&gt;key&lt;/span&gt;;&lt;/div&gt;" style="whiteSpace=wrap;html=1;" vertex="1" parent="1">
          <mxGeometry x="1311" y="2660" width="190" height="60" as="geometry" />
        </mxCell>
        <mxCell id="KrVHmB8MGcx_cQTEwFVy-100" style="edgeStyle=orthogonalEdgeStyle;rounded=0;orthogonalLoop=1;jettySize=auto;html=1;" edge="1" parent="1" source="KrVHmB8MGcx_cQTEwFVy-103" target="KrVHmB8MGcx_cQTEwFVy-80">
          <mxGeometry relative="1" as="geometry" />
        </mxCell>
        <mxCell id="KrVHmB8MGcx_cQTEwFVy-101" value="true" style="edgeLabel;html=1;align=center;verticalAlign=middle;resizable=0;points=[];" vertex="1" connectable="0" parent="KrVHmB8MGcx_cQTEwFVy-100">
          <mxGeometry x="-0.0481" y="3" relative="1" as="geometry">
            <mxPoint as="offset" />
          </mxGeometry>
        </mxCell>
        <mxCell id="KrVHmB8MGcx_cQTEwFVy-102" value="" style="edgeStyle=orthogonalEdgeStyle;rounded=0;orthogonalLoop=1;jettySize=auto;html=1;" edge="1" parent="1" source="KrVHmB8MGcx_cQTEwFVy-103" target="KrVHmB8MGcx_cQTEwFVy-106">
          <mxGeometry relative="1" as="geometry" />
        </mxCell>
        <mxCell id="KrVHmB8MGcx_cQTEwFVy-103" value="choice==3" style="rhombus;whiteSpace=wrap;html=1;rounded=1;" vertex="1" parent="1">
          <mxGeometry x="214.5" y="2660" width="111" height="110" as="geometry" />
        </mxCell>
        <mxCell id="KrVHmB8MGcx_cQTEwFVy-104" value="" style="edgeStyle=orthogonalEdgeStyle;rounded=0;orthogonalLoop=1;jettySize=auto;html=1;" edge="1" parent="1" source="KrVHmB8MGcx_cQTEwFVy-106" target="KrVHmB8MGcx_cQTEwFVy-107">
          <mxGeometry relative="1" as="geometry" />
        </mxCell>
        <mxCell id="KrVHmB8MGcx_cQTEwFVy-105" value="" style="edgeStyle=orthogonalEdgeStyle;rounded=0;orthogonalLoop=1;jettySize=auto;html=1;" edge="1" parent="1" source="KrVHmB8MGcx_cQTEwFVy-106" target="KrVHmB8MGcx_cQTEwFVy-109">
          <mxGeometry relative="1" as="geometry">
            <mxPoint x="270" y="3310" as="targetPoint" />
          </mxGeometry>
        </mxCell>
        <mxCell id="KrVHmB8MGcx_cQTEwFVy-106" value="choice==4" style="rhombus;whiteSpace=wrap;html=1;rounded=1;" vertex="1" parent="1">
          <mxGeometry x="214.5" y="3120" width="111" height="110" as="geometry" />
        </mxCell>
        <mxCell id="KrVHmB8MGcx_cQTEwFVy-107" value="end" style="ellipse;whiteSpace=wrap;html=1;rounded=1;" vertex="1" parent="1">
          <mxGeometry x="591" y="3200" width="121" height="55" as="geometry" />
        </mxCell>
        <mxCell id="KrVHmB8MGcx_cQTEwFVy-108" style="edgeStyle=orthogonalEdgeStyle;rounded=0;orthogonalLoop=1;jettySize=auto;html=1;exitX=1;exitY=0.5;exitDx=0;exitDy=0;" edge="1" parent="1" source="KrVHmB8MGcx_cQTEwFVy-109">
          <mxGeometry relative="1" as="geometry">
            <mxPoint x="2279.5714285714284" y="3100" as="targetPoint" />
            <mxPoint x="330" y="3310" as="sourcePoint" />
          </mxGeometry>
        </mxCell>
        <mxCell id="KrVHmB8MGcx_cQTEwFVy-109" value="Vui long nhap 1-4" style="shape=parallelogram;perimeter=parallelogramPerimeter;whiteSpace=wrap;html=1;fixedSize=1;" vertex="1" parent="1">
          <mxGeometry x="210" y="3280" width="120" height="60" as="geometry" />
        </mxCell>
      </root>
    </mxGraphModel>
  </diagram>
</mxfile>
